# xmcd
#
# Track frame offsets:
#	150
#	15408
#	30447
#	47883
#	63897
#	77971
#	92182
#	109777
#	122572
#	135360
#	150018
#
# Disc length: 2244 seconds
#
# Revision: 0
# Processed by: cddbd v1.5.1PL2 Copyright (c) Steve Scherf et al.
# Submitted via: audiograbber 1.83.01
#
DISCID=7708c20b
DTITLE=еуяудийг - то йоулпи
DYEAR=1999
DGENRE=екк поп
TTITLE0=лпаяайи
TTITLE1=то йоулпи
TTITLE2=аута поу йяубы леса лоу
TTITLE3=пыс аккана пыс акканес
TTITLE4=еяытеулемои евхяои
TTITLE5=екеухеяо тани
TTITLE6=то тяито суятаяи
TTITLE7=паяамолг апосйеуг
TTITLE8=тяеис леяес
TTITLE9=сто дяоло ока петалема
TTITLE10=ха 'хека ма соу пы
EXTD=
EXTT0=
EXTT1=
EXTT2=
EXTT3=
EXTT4=
EXTT5=
EXTT6=
EXTT7=
EXTT8=
EXTT9=
EXTT10=
PLAYORDER=
